<svg width="640" height="420" viewBox="0 0 640 420" fill="none" xmlns="http://www.w3.org/2000/svg" role="img" aria-label="기본 원두 상품 이미지">
  <rect width="640" height="420" rx="8" fill="#FFFDF9"/>
  <rect x="1" y="1" width="638" height="418" rx="7" stroke="#EDE0D0" stroke-width="2"/>
  <circle cx="320" cy="206" r="124" fill="#FAF6F0"/>
  <circle cx="320" cy="206" r="96" stroke="#EDE0D0" stroke-width="2" stroke-dasharray="8 10"/>

  <g filter="url(#shadow)">
    <path d="M240.5 182.3C259.4 143.7 307.6 130 343.9 153.4C325 192.1 276.8 205.8 240.5 182.3Z" fill="url(#beanA)"/>
    <path d="M250.9 180.8C278.5 174.4 304.7 166.8 333.1 155.6" stroke="#F5E6C8" stroke-width="8" stroke-linecap="round"/>

    <path d="M330.9 239.4C347.8 199.9 394 184.2 431.2 205.1C414.3 244.6 368.1 260.3 330.9 239.4Z" fill="url(#beanB)"/>
    <path d="M341.2 237.2C365.6 229.7 390.4 220.8 421.1 207.9" stroke="#F5E6C8" stroke-width="8" stroke-linecap="round"/>

    <path d="M224.1 263.4C236 222.1 280.9 211.1 315.6 236.1C303.7 277.4 258.8 288.5 224.1 263.4Z" fill="url(#beanC)"/>
    <path d="M234.1 261.7C257.5 252.8 279.8 244.1 305.8 237.3" stroke="#F5E6C8" stroke-width="8" stroke-linecap="round"/>
  </g>

  <text x="320" y="346" text-anchor="middle" fill="#6B4423" font-family="Pretendard, Inter, -apple-system, BlinkMacSystemFont, 'Segoe UI', sans-serif" font-size="22" font-weight="700">Grids &amp; Circles</text>
  <text x="320" y="374" text-anchor="middle" fill="#8B5A2B" font-family="Pretendard, Inter, -apple-system, BlinkMacSystemFont, 'Segoe UI', sans-serif" font-size="16" font-weight="600">Coffee Beans</text>

  <defs>
    <filter id="shadow" x="193" y="126" width="266" height="176" filterUnits="userSpaceOnUse" color-interpolation-filters="sRGB">
      <feDropShadow dx="0" dy="10" stdDeviation="10" flood-color="#2C1A0E" flood-opacity="0.16"/>
    </filter>
    <linearGradient id="beanA" x1="246" y1="189" x2="339" y2="149" gradientUnits="userSpaceOnUse">
      <stop stop-color="#2C1A0E"/>
      <stop offset="0.55" stop-color="#8B5A2B"/>
      <stop offset="1" stop-color="#C8894E"/>
    </linearGradient>
    <linearGradient id="beanB" x1="338" y1="246" x2="426" y2="201" gradientUnits="userSpaceOnUse">
      <stop stop-color="#3A2113"/>
      <stop offset="0.58" stop-color="#9A6334"/>
      <stop offset="1" stop-color="#C8894E"/>
    </linearGradient>
    <linearGradient id="beanC" x1="230" y1="269" x2="311" y2="232" gradientUnits="userSpaceOnUse">
      <stop stop-color="#2C1A0E"/>
      <stop offset="0.56" stop-color="#7A4824"/>
      <stop offset="1" stop-color="#B9783E"/>
    </linearGradient>
  </defs>
</svg>
